<svg width="58" height="31" viewBox="0 0 58 31" fill="none" xmlns="http://www.w3.org/2000/svg">
<path d="M52.6548 20.3329C53.2232 19.7864 53.9665 19.5131 54.8847 19.5131C55.8029 19.5131 56.5462 19.7864 57.1145 20.3329C57.7048 20.8795 57.9999 21.6227 57.9999 22.5628C57.9999 23.5028 57.7048 24.2461 57.1145 24.7926C56.5243 25.3392 55.781 25.6124 54.8847 25.6124C53.9884 25.6124 53.2451 25.3392 52.6548 24.7926C52.0864 24.2461 51.8022 23.5028 51.8022 22.5628C51.8022 21.6227 52.0864 20.8795 52.6548 20.3329Z" fill="#8F34FB"/>
<path d="M47.6209 8.13433V25.2189H42.6038V8.13433H47.6209ZM42.9317 1.28081C43.5001 0.778001 44.2106 0.526596 45.0632 0.526596C45.9595 0.526596 46.6918 0.778001 47.2602 1.28081C47.8286 1.76176 48.1128 2.43946 48.1128 3.31391C48.1128 4.1665 47.8177 4.8442 47.2274 5.34701C46.659 5.82796 45.9376 6.06843 45.0632 6.06843C44.2106 6.06843 43.5001 5.82796 42.9317 5.34701C42.3633 4.8442 42.0791 4.1665 42.0791 3.31391C42.0791 2.46132 42.3633 1.78362 42.9317 1.28081Z" fill="#090013"/>
<path d="M28.557 24.8582C27.6607 24.3773 26.8737 23.7105 26.196 22.8579V30.7608H21.146V8.13433L26.3271 10.5281C27.0485 9.63183 27.8356 8.9432 28.6881 8.46225C29.5407 7.9813 30.5791 7.74083 31.8034 7.74083C33.2244 7.74083 34.536 8.11247 35.7384 8.85576C36.9408 9.57718 37.8918 10.6156 38.5913 11.971C39.3127 13.3264 39.6734 14.8895 39.6734 16.6602C39.6734 18.431 39.3127 19.9941 38.5913 21.3495C37.8918 22.7049 36.9408 23.7542 35.7384 24.4975C34.536 25.2189 33.2353 25.5796 31.8362 25.5796C30.5682 25.5796 29.4751 25.3392 28.557 24.8582ZM33.4758 13.3483C32.6888 12.4519 31.6503 12.0038 30.3605 12.0038C29.5954 12.0038 28.8849 12.2115 28.2291 12.6268C27.5732 13.0203 27.0485 13.5778 26.655 14.2992C26.2834 14.9988 26.0976 15.7967 26.0976 16.693C26.0976 17.5675 26.2943 18.3654 26.6878 19.0868C27.0813 19.7864 27.606 20.3439 28.2618 20.7592C28.9177 21.1527 29.6282 21.3495 30.3933 21.3495C31.6176 21.3495 32.6341 20.9123 33.443 20.0378C34.2737 19.1634 34.6891 18.0266 34.6891 16.6274C34.6891 15.3376 34.2846 14.2446 33.4758 13.3483Z" fill="#090013"/>
<path d="M8.95241 22.2677C10.2859 22.2677 11.4446 21.7976 12.4284 20.8576V17.9063C11.5539 17.4254 10.5264 17.1849 9.34591 17.1849C8.34029 17.1849 7.50956 17.4145 6.85372 17.8735C6.21974 18.3326 5.90276 18.9557 5.90276 19.7427C5.90276 20.5078 6.19788 21.1199 6.78814 21.579C7.37839 22.0381 8.09982 22.2677 8.95241 22.2677ZM15.2485 9.67555C16.6694 10.8998 17.3799 12.6924 17.3799 15.0534V25.4813L12.3956 23.4482C11.696 24.1477 10.9309 24.6833 10.1001 25.055C9.26939 25.4266 8.29657 25.6124 7.18164 25.6124C6.06672 25.6124 5.0283 25.3938 4.06641 24.9566C3.12637 24.4975 2.37216 23.8417 1.80376 22.9891C1.23537 22.1146 0.951172 21.0871 0.951172 19.9066C0.951172 18.0922 1.59608 16.7258 2.8859 15.8076C4.17571 14.8895 5.8481 14.4304 7.90306 14.4304C9.65197 14.4304 11.1604 14.7037 12.4284 15.2502V14.8567C12.4284 13.7855 12.0458 13.0094 11.2806 12.5285C10.5373 12.0256 9.43335 11.7742 7.96865 11.7742C6.00113 11.7742 4.12106 12.1787 2.32843 12.9875V9.21646C3.4215 8.77924 4.50363 8.44039 5.57484 8.19991C6.64604 7.95944 7.81562 7.8392 9.08357 7.8392C11.7725 7.8392 13.8275 8.45132 15.2485 9.67555Z" fill="#090013"/>
</svg>
