<svg width="53" height="29" viewBox="0 0 53 29" fill="none" xmlns="http://www.w3.org/2000/svg">
<path d="M48.0957 18.8259C48.6173 18.3244 49.2993 18.0737 50.1418 18.0737C50.9843 18.0737 51.6664 18.3244 52.1879 18.8259C52.7295 19.3274 53.0003 20.0094 53.0003 20.872C53.0003 21.7346 52.7295 22.4166 52.1879 22.9181C51.6463 23.4196 50.9643 23.6703 50.1418 23.6703C49.3194 23.6703 48.6374 23.4196 48.0957 22.9181C47.5742 22.4166 47.3134 21.7346 47.3134 20.872C47.3134 20.0094 47.5742 19.3274 48.0957 18.8259Z" fill="#8F34FB"/>
<path d="M43.4759 7.63261V23.3093H38.8722V7.63261H43.4759ZM39.1731 1.34389C39.6946 0.882519 40.3466 0.651833 41.1289 0.651833C41.9513 0.651833 42.6233 0.882519 43.1449 1.34389C43.6664 1.78521 43.9272 2.40706 43.9272 3.20944C43.9272 3.99177 43.6564 4.61362 43.1148 5.075C42.5933 5.51631 41.9313 5.73697 41.1289 5.73697C40.3466 5.73697 39.6946 5.51631 39.1731 5.075C38.6515 4.61362 38.3907 3.99177 38.3907 3.20944C38.3907 2.42712 38.6515 1.80527 39.1731 1.34389Z" fill="#F2E3FF"/>
<path d="M25.9837 22.9783C25.1613 22.537 24.4391 21.9252 23.8173 21.1428V28.3944H19.1835V7.63263L23.9376 9.82917C24.5996 9.00672 25.3217 8.37484 26.1041 7.93352C26.8864 7.49221 27.8392 7.27155 28.9626 7.27155C30.2665 7.27155 31.47 7.61257 32.5733 8.2946C33.6766 8.95657 34.5492 9.90941 35.1911 11.1531C35.8531 12.3968 36.1841 13.8311 36.1841 15.4559C36.1841 17.0807 35.8531 18.515 35.1911 19.7587C34.5492 21.0024 33.6766 21.9653 32.5733 22.6473C31.47 23.3093 30.2765 23.6403 28.9927 23.6403C27.8292 23.6403 26.8262 23.4196 25.9837 22.9783ZM30.4971 12.4169C29.775 11.5944 28.8222 11.1832 27.6386 11.1832C26.9365 11.1832 26.2846 11.3738 25.6828 11.7549C25.081 12.116 24.5996 12.6275 24.2385 13.2895C23.8975 13.9314 23.727 14.6636 23.727 15.486C23.727 16.2884 23.9075 17.0206 24.2686 17.6825C24.6297 18.3244 25.1111 18.836 25.7129 19.2171C26.3147 19.5782 26.9666 19.7587 27.6687 19.7587C28.7921 19.7587 29.7248 19.3575 30.4671 18.5551C31.2293 17.7527 31.6105 16.7096 31.6105 15.4258C31.6105 14.2423 31.2394 13.2393 30.4971 12.4169Z" fill="#F2E3FF"/>
<path d="M7.99456 20.6012C9.2182 20.6012 10.2814 20.1699 11.1841 19.3074V16.5993C10.3817 16.158 9.43886 15.9373 8.35563 15.9373C7.43289 15.9373 6.67062 16.148 6.06883 16.5692C5.4871 16.9905 5.19623 17.5622 5.19623 18.2843C5.19623 18.9864 5.46704 19.5481 6.00865 19.9693C6.55026 20.3906 7.21223 20.6012 7.99456 20.6012ZM13.7718 9.04683C15.0756 10.1702 15.7276 11.8151 15.7276 13.9815V23.55L11.154 21.6844C10.5121 22.3264 9.80996 22.8178 9.04769 23.1588C8.28543 23.4998 7.39277 23.6704 6.36972 23.6704C5.34668 23.6704 4.39384 23.4698 3.51122 23.0686C2.64865 22.6473 1.95659 22.0455 1.43504 21.2632C0.913486 20.4608 0.65271 19.518 0.65271 18.4348C0.65271 16.7698 1.24447 15.5161 2.42799 14.6736C3.61152 13.8311 5.14608 13.4098 7.03169 13.4098C8.63647 13.4098 10.0206 13.6606 11.1841 14.1621V13.801C11.1841 12.8181 10.833 12.1059 10.1309 11.6646C9.44889 11.2032 8.43587 10.9726 7.09187 10.9726C5.2865 10.9726 3.56137 11.3437 1.91647 12.0859V8.62558C2.91946 8.22438 3.91241 7.91346 4.89534 7.6928C5.87826 7.47214 6.95146 7.36182 8.11492 7.36182C10.5823 7.36182 12.4679 7.92349 13.7718 9.04683Z" fill="#F2E3FF"/>
</svg>
