<svg width="47" height="53" viewBox="0 0 47 53" fill="none" xmlns="http://www.w3.org/2000/svg">
<path d="M16.4433 5.35038L9.55972 0.840393C7.8795 3.58181 6.5798 8.55205 8.70959 13.9615C2.90088 18.4524 -0.626842 25.7191 0.232229 34.5466C1.37679 46.3077 12.4471 52.3058 21.6655 52.5865C30.8838 52.8673 38.2111 47.1271 40.4175 42.6171V48.0765L45.6786 45.9402L46.1533 37.1576C46.1533 37.1576 46.3907 35.4961 45.6786 34.5466C44.8481 33.4393 43.3049 33.3597 43.3049 33.3597L34.0476 32.6476L30.4871 37.1576L35.6 38.1071C33.5728 41.4302 29.6274 43.6322 24.7902 44.5151C18.283 45.7028 10.984 43.8015 8.70959 35.4961C7.48834 31.0365 8.70959 25.2892 13.5523 20.993C15.587 22.9709 17.3227 25.2658 21.6655 26.7135C28.5491 29.008 41.9366 30.2265 40.4175 16.744C39.7845 12.3923 34.1035 4.82817 16.4433 9.38562C16.2527 9.46542 16.0572 9.55006 15.8574 9.6395C15.7859 8.35088 15.959 6.92463 16.4433 5.35038ZM27.5995 20.0672C24.2063 20.0672 22.0853 18.6381 19.6021 16.6241C21.8433 15.7733 24.681 15.0824 27.5995 15.7945C31.3273 16.744 36.0747 19.5924 27.5995 20.0672Z" fill="#8F34FB"/>
</svg>
