<svg width="107" height="56" viewBox="0 0 107 56" fill="none" xmlns="http://www.w3.org/2000/svg">
<path d="M101.655 45.3329C102.223 44.7864 102.967 44.5131 103.885 44.5131C104.803 44.5131 105.546 44.7864 106.115 45.3329C106.705 45.8795 107 46.6227 107 47.5628C107 48.5028 106.705 49.2461 106.115 49.7926C105.524 50.3392 104.781 50.6124 103.885 50.6124C102.988 50.6124 102.245 50.3392 101.655 49.7926C101.086 49.2461 100.802 48.5028 100.802 47.5628C100.802 46.6227 101.086 45.8795 101.655 45.3329Z" fill="#8F34FB"/>
<path d="M96.6209 33.1343V50.2189H91.6038V33.1343H96.6209ZM91.9317 26.2808C92.5001 25.778 93.2106 25.5266 94.0632 25.5266C94.9595 25.5266 95.6918 25.778 96.2602 26.2808C96.8286 26.7618 97.1128 27.4395 97.1128 28.3139C97.1128 29.1665 96.8177 29.8442 96.2274 30.347C95.659 30.828 94.9376 31.0684 94.0632 31.0684C93.2106 31.0684 92.5001 30.828 91.9317 30.347C91.3633 29.8442 91.0791 29.1665 91.0791 28.3139C91.0791 27.4613 91.3633 26.7836 91.9317 26.2808Z" fill="#090013"/>
<path d="M77.557 49.8582C76.6607 49.3773 75.8737 48.7105 75.196 47.8579V55.7608H70.146V33.1343L75.3271 35.5281C76.0485 34.6318 76.8356 33.9432 77.6881 33.4623C78.5407 32.9813 79.5791 32.7408 80.8034 32.7408C82.2244 32.7408 83.536 33.1125 84.7384 33.8558C85.9408 34.5772 86.8918 35.6156 87.5913 36.971C88.3127 38.3264 88.6734 39.8895 88.6734 41.6602C88.6734 43.431 88.3127 44.9941 87.5913 46.3495C86.8918 47.7049 85.9408 48.7542 84.7384 49.4975C83.536 50.2189 82.2353 50.5796 80.8362 50.5796C79.5682 50.5796 78.4751 50.3392 77.557 49.8582ZM82.4758 38.3483C81.6888 37.4519 80.6503 37.0038 79.3605 37.0038C78.5954 37.0038 77.8849 37.2115 77.2291 37.6268C76.5732 38.0203 76.0485 38.5778 75.655 39.2992C75.2834 39.9988 75.0976 40.7967 75.0976 41.693C75.0976 42.5675 75.2943 43.3654 75.6878 44.0868C76.0813 44.7864 76.606 45.3439 77.2618 45.7592C77.9177 46.1527 78.6282 46.3495 79.3933 46.3495C80.6176 46.3495 81.6341 45.9123 82.443 45.0378C83.2737 44.1634 83.6891 43.0266 83.6891 41.6274C83.6891 40.3376 83.2846 39.2446 82.4758 38.3483Z" fill="#090013"/>
<path d="M57.9524 47.2677C59.2859 47.2677 60.4446 46.7976 61.4284 45.8576V42.9063C60.5539 42.4254 59.5264 42.1849 58.3459 42.1849C57.3403 42.1849 56.5096 42.4145 55.8537 42.8735C55.2197 43.3326 54.9028 43.9557 54.9028 44.7427C54.9028 45.5078 55.1979 46.1199 55.7881 46.579C56.3784 47.0381 57.0998 47.2677 57.9524 47.2677ZM64.2485 34.6756C65.6694 35.8998 66.3799 37.6924 66.3799 40.0534V50.4813L61.3956 48.4482C60.696 49.1477 59.9309 49.6833 59.1001 50.055C58.2694 50.4266 57.2966 50.6124 56.1816 50.6124C55.0667 50.6124 54.0283 50.3938 53.0664 49.9566C52.1264 49.4975 51.3722 48.8417 50.8038 47.9891C50.2354 47.1146 49.9512 46.0871 49.9512 44.9066C49.9512 43.0922 50.5961 41.7258 51.8859 40.8076C53.1757 39.8895 54.8481 39.4304 56.9031 39.4304C58.652 39.4304 60.1604 39.7037 61.4284 40.2502V39.8567C61.4284 38.7855 61.0458 38.0094 60.2806 37.5285C59.5373 37.0256 58.4334 36.7742 56.9686 36.7742C55.0011 36.7742 53.1211 37.1787 51.3284 37.9875V34.2165C52.4215 33.7792 53.5036 33.4404 54.5748 33.1999C55.646 32.9594 56.8156 32.8392 58.0836 32.8392C60.7725 32.8392 62.8275 33.4513 64.2485 34.6756Z" fill="#090013"/>
<path d="M16.4433 5.35038L9.55972 0.840393C7.8795 3.58181 6.5798 8.55205 8.70959 13.9615C2.90088 18.4524 -0.626842 25.7191 0.232229 34.5466C1.37679 46.3077 12.4471 52.3058 21.6655 52.5865C30.8838 52.8673 38.2111 47.1271 40.4175 42.6171V48.0765L45.6786 45.9402L46.1533 37.1576C46.1533 37.1576 46.3907 35.4961 45.6786 34.5466C44.8481 33.4393 43.3049 33.3597 43.3049 33.3597L34.0476 32.6476L30.4871 37.1576L35.6 38.1071C33.5728 41.4302 29.6274 43.6322 24.7902 44.5151C18.283 45.7028 10.984 43.8015 8.70959 35.4961C7.48834 31.0365 8.70959 25.2892 13.5523 20.993C15.587 22.9709 17.3227 25.2658 21.6655 26.7135C28.5491 29.008 41.9366 30.2265 40.4175 16.744C39.7845 12.3923 34.1035 4.82817 16.4433 9.38562C16.2527 9.46542 16.0572 9.55006 15.8574 9.6395C15.7859 8.35088 15.959 6.92463 16.4433 5.35038ZM27.5995 20.0672C24.2063 20.0672 22.0853 18.6381 19.6021 16.6241C21.8433 15.7733 24.681 15.0824 27.5995 15.7945C31.3273 16.744 36.0747 19.5924 27.5995 20.0672Z" fill="#8F34FB"/>
</svg>
